<svg xmlns="http://www.w3.org/2000/svg" viewBox="0 0 332 227.44"><defs><style>.cls-1{fill:#0e3f68}</style></defs><title>Asset 3</title><g id="Layer_2" data-name="Layer 2"><path class="cls-1" d="M0 226.43v-56h29.48c10.67 0 16.13 6.8 16.13 14.28 0 7-4.37 11.76-9.66 12.85 6 .92 10.75 6.72 10.75 13.69 0 8.48-5.54 15.2-16.29 15.2zm33.43-39.64c0-3.44-2.52-5.88-6.55-5.88h-15v11.76h15c4.03-.01 6.55-2.28 6.55-5.89zm1.09 22.76c0-3.53-2.52-6.38-7.14-6.38H11.93v12.77h15.45c4.45-.01 7.14-2.36 7.14-6.39zm61.23 16.88l-11-19.91H76v19.91H64.09v-56H90.3c11.68 0 18.9 7.64 18.9 18.06 0 9.83-6.3 15.2-12.35 16.63l12.68 21.33zm1.18-38c0-4.62-3.61-7.48-8.32-7.48H76V196h12.6c4.72 0 8.33-2.83 8.33-7.62zm29.57-18.03h11.93v56H126.5v-56m29.84 56.03v-56h22.09c17.55 0 29.73 11.17 29.73 28 0 17-12.18 28.05-29.65 28.05zM196 198.37c0-9.83-6-17.47-17.47-17.47h-10.26v35h10.16c11.09.03 17.57-7.9 17.57-17.53zm24.79.09c0-17.72 13.44-29 29.9-29 11.59 0 18.9 5.88 23.1 12.52l-9.79 5.39a16.1 16.1 0 0 0-13.27-7.31c-10.25 0-17.64 7.81-17.64 18.39s7.39 18.4 17.64 18.4a18.64 18.64 0 0 0 11.84-4.28v-6.72h-14.82v-10.41h26.71v21.5a31 31 0 0 1-23.77 10.5c-16.46 0-29.9-11.34-29.9-28.98zm71.57 27.97v-56H332v10.5h-27.72v11.76h27.13v10.5h-27.13v12.77H332v10.5zM95.51 0v141.59h141.6V0zm42.26 117.67H119V94.84a97.81 97.81 0 0 0 18.81-2zm25 0H144V91.36A96.76 96.76 0 0 0 162.81 84zm25.08 0h-18.77V80.43a97.85 97.85 0 0 0 18.81-15.09zm25.19 0h-18.76V58.15a97.1 97.1 0 0 0 17.8-35h1z" id="Layer_1-2" data-name="Layer 1"/></g></svg>