<svg xmlns="http://www.w3.org/2000/svg" viewBox="0 0 229.89 189.3"><defs><style>.cls-1{fill:#e43d30;}.cls-2{fill:#a6a8ab;}</style></defs><title>canvas-logo-vertAsset 1</title><g id="Layer_2" data-name="Layer 2"><g id="art"><path class="cls-1" d="M72.18,60.12A17.41,17.41,0,0,0,56.9,42.85a69.23,69.23,0,0,0,0,34.55A17.42,17.42,0,0,0,72.18,60.12Z"/><path class="cls-1" d="M82.31,54.66a5.47,5.47,0,1,0,5.46,5.46A5.46,5.46,0,0,0,82.31,54.66Z"/><path class="cls-1" d="M157.71,60.12A17.42,17.42,0,0,0,173,77.4a69.23,69.23,0,0,0,0-34.55A17.41,17.41,0,0,0,157.71,60.12Z"/><path class="cls-1" d="M147.58,54.66A5.47,5.47,0,1,0,153,60.12,5.46,5.46,0,0,0,147.58,54.66Z"/><path class="cls-1" d="M114.83,103a17.41,17.41,0,0,0-17.27,15.28,69.23,69.23,0,0,0,34.55,0A17.42,17.42,0,0,0,114.83,103Z"/><path class="cls-1" d="M114.83,87.45a5.47,5.47,0,1,0,5.46,5.46A5.47,5.47,0,0,0,114.83,87.45Z"/><path class="cls-1" d="M114.83,17.47A17.42,17.42,0,0,0,132.11,2.19a69.23,69.23,0,0,0-34.55,0A17.41,17.41,0,0,0,114.83,17.47Z"/><path class="cls-1" d="M114.83,22.14a5.46,5.46,0,1,0,5.46,5.46A5.46,5.46,0,0,0,114.83,22.14Z"/><path class="cls-1" d="M145.12,90.41a17.42,17.42,0,0,0-1.41,23A69.27,69.27,0,0,0,168.13,89,17.43,17.43,0,0,0,145.12,90.41Z"/><path class="cls-1" d="M134.1,79.39a5.46,5.46,0,1,0,7.72,0A5.46,5.46,0,0,0,134.1,79.39Z"/><path class="cls-1" d="M84.64,29.93a17.42,17.42,0,0,0,1.42-23A69.22,69.22,0,0,0,61.63,31.35,17.42,17.42,0,0,0,84.64,29.93Z"/><path class="cls-1" d="M87.94,33.23a5.46,5.46,0,1,0,7.72,0A5.46,5.46,0,0,0,87.94,33.23Z"/><path class="cls-1" d="M145.09,29.87a17.4,17.4,0,0,0,23,1.42A69.08,69.08,0,0,0,143.67,6.87,17.4,17.4,0,0,0,145.09,29.87Z"/><path class="cls-1" d="M141.79,40.9a5.47,5.47,0,1,0-7.73,0A5.47,5.47,0,0,0,141.79,40.9Z"/><path class="cls-1" d="M84.61,90.34a17.43,17.43,0,0,0-23-1.42A69.14,69.14,0,0,0,86,113.35,17.42,17.42,0,0,0,84.61,90.34Z"/><path class="cls-1" d="M87.91,79.32a5.46,5.46,0,1,0,7.72,0A5.47,5.47,0,0,0,87.91,79.32Z"/><path class="cls-2" d="M17.28,189.3C8.56,189.3,0,184,0,169.42s8.56-19.8,17.28-19.8c5.35,0,9.1,1.53,12.76,5.43l-5.35,5.2c-2.44-2.68-4.35-3.67-7.41-3.67A8.74,8.74,0,0,0,10.09,160c-1.68,2.14-2.29,4.89-2.29,9.4s.61,7.34,2.29,9.48a8.74,8.74,0,0,0,7.19,3.44c3.06,0,5-1,7.41-3.67L30,183.8A16,16,0,0,1,17.28,189.3Z"/><path class="cls-2" d="M60.09,188.84v-3.52c-2.83,2.83-5.51,4-10.32,4s-8-1.15-10.4-3.52a11.87,11.87,0,0,1-3.06-8.33c0-6.5,4.51-11.16,13.38-11.16H59.93v-2.75c0-4.9-2.44-7.27-8.48-7.27-4.28,0-6.35,1-8.49,3.75l-5.12-4.82c3.67-4.28,7.49-5.58,13.91-5.58,10.63,0,16,4.51,16,13.3v25.92Zm-.16-17.12H50.84c-4.59,0-7,2.06-7,5.58s2.22,5.5,7.11,5.5c3,0,5.2-.23,7.26-2.22,1.15-1.14,1.68-3,1.68-5.73Z"/><path class="cls-2" d="M104.13,188.84V165.22c0-6-3.45-8.64-7.8-8.64s-8,2.67-8,8.64v23.62H80.5V150.08h7.65V154a13.87,13.87,0,0,1,10.32-4.36,13.42,13.42,0,0,1,9.55,3.52c3,2.9,3.9,6.57,3.9,10.93v24.77Z"/><path class="cls-2" d="M139.68,188.84h-6.35l-14.22-38.76h8.26l9.17,27.29,9.1-27.29h8.25Z"/><path class="cls-2" d="M182,188.84v-3.52c-2.83,2.83-5.5,4-10.32,4s-8-1.15-10.4-3.52a11.91,11.91,0,0,1-3.06-8.33c0-6.5,4.52-11.16,13.38-11.16h10.25v-2.75c0-4.9-2.45-7.27-8.49-7.27-4.28,0-6.34,1-8.48,3.75l-5.13-4.82c3.68-4.28,7.5-5.58,13.92-5.58,10.63,0,16,4.51,16,13.3v25.92Zm-.15-17.12h-9.1c-4.58,0-6.95,2.06-6.95,5.58s2.21,5.5,7.1,5.5c3,0,5.2-.23,7.27-2.22,1.14-1.14,1.68-3,1.68-5.73Z"/><path class="cls-2" d="M213.76,189.3c-6.35,0-11.7-1.07-16.28-5.58l5.12-5.12c3.14,3.21,7.34,4.05,11.16,4.05,4.74,0,8.48-1.68,8.48-5.35,0-2.6-1.45-4.28-5.19-4.59l-6.19-.54c-7.27-.61-11.47-3.89-11.47-10.7,0-7.57,6.49-11.85,14.6-11.85,5.81,0,10.78,1.23,14.37,4.36l-4.89,5c-2.45-2.07-5.89-2.83-9.56-2.83-4.66,0-7,2.06-7,5,0,2.29,1.23,4,5.35,4.43l6.12.54c7.26.61,11.54,4.05,11.54,10.93C229.89,185.09,223,189.3,213.76,189.3Z"/></g></g></svg>